<?xml version="1.0" ?><svg height="64" id="svg8" version="1.1" viewBox="0 0 16.933333 16.933334" width="64" xmlns="http://www.w3.org/2000/svg" xmlns:cc="http://creativecommons.org/ns#" xmlns:dc="http://purl.org/dc/elements/1.1/" xmlns:inkscape="http://www.inkscape.org/namespaces/inkscape" xmlns:rdf="http://www.w3.org/1999/02/22-rdf-syntax-ns#" xmlns:sodipodi="http://sodipodi.sourceforge.net/DTD/sodipodi-0.dtd" xmlns:svg="http://www.w3.org/2000/svg"><defs id="defs2"/><g id="layer1"><path d="M 7.4295208,0.69707727 C 7.1573749,0.83322327 7.0551028,1.0372632 6.980453,1.2066072 c -0.07465,0.169344 -0.1240351,0.305836 -0.2563161,0.457336 -0.1322761,0.151501 -0.3561059,0.324939 -0.800467,0.503845 -0.444364,0.178901 -0.7264271,0.208613 -0.9275922,0.191203 -0.2011629,-0.01742 -0.3326328,-0.0824 -0.504362,-0.152446 -0.2082159,-0.08495 -0.4118599,-0.13691 -0.6774778,-0.05426 -0.265617,0.08266 -0.536076,0.276253 -0.9120891,0.6444051 -0.376013,0.368153 -0.576302,0.634358 -0.664042,0.898137 -0.0946,0.284395 -0.02248,0.5056709 0.04496,0.677995 0.06744,0.17232 0.130167,0.301751 0.144177,0.5017781 0.01401,0.2000279 -0.02168,0.4806238 -0.208772,0.9198398 -0.187098,0.4392142 -0.363843,0.659851 -0.519349,0.7911661 -0.155505,0.131318 -0.298906,0.180753 -0.4728391,0.259933 -0.173933,0.07918 -0.37813297,0.1938621 -0.51366397,0.4707721 -0.125592,0.256598 -0.178951,0.599834 -0.183451,1.1482502 -9e-6,7.41e-4 5.19e-4,0.0013 5.17e-4,0.0021 2e-6,7.41e-4 -5.28e-4,0.0013 -5.17e-4,0.0021 0.0045,0.548427 0.05786,0.891663 0.183451,1.148261 0.135531,0.27691 0.33973097,0.3915894 0.51366397,0.4707714 0.1739331,0.07918 0.3173341,0.128615 0.4728391,0.259933 0.155506,0.131315 0.332251,0.351952 0.519349,0.791166 0.187093,0.439216 0.222782,0.719812 0.208772,0.91984 -0.01401,0.200027 -0.07674,0.329458 -0.144177,0.501778 -0.06744,0.172323 -0.139557,0.3936 -0.04496,0.677995 0.08774,0.263779 0.288029,0.529984 0.664042,0.898137 0.3760131,0.368151 0.6464721,0.561744 0.9120891,0.644404 0.2656179,0.08265 0.4692619,0.03069 0.6774778,-0.05426 0.1717292,-0.07005 0.3031991,-0.135025 0.504362,-0.152445 0.2011651,-0.01741 0.4832282,0.0123 0.9275922,0.191203 0.4443611,0.178906 0.6681909,0.352344 0.800467,0.503845 0.132281,0.1515 0.181666,0.287992 0.2563161,0.457336 0.07465,0.169344 0.1769219,0.373384 0.4490678,0.50953 0.2369841,0.118561 0.552537,0.167451 1.037146,0.167948 0.484609,-5.29e-4 0.8001622,-0.04939 1.0371461,-0.167948 0.2721462,-0.136146 0.3744132,-0.340189 0.449068,-0.50953 0.07465,-0.169344 0.1240361,-0.305836 0.2563151,-0.457336 0.132278,-0.151501 0.356106,-0.324939 0.800468,-0.503845 0.444364,-0.178903 0.726427,-0.20862 0.927592,-0.191203 0.201164,0.01741 0.332633,0.08239 0.504362,0.152445 0.208217,0.08495 0.411861,0.136914 0.677478,0.05426 0.265617,-0.08266 0.536075,-0.276253 0.91209,-0.644404 0.376011,-0.368153 0.5763,-0.634358 0.664042,-0.898137 0.0946,-0.284395 0.02248,-0.505672 -0.04496,-0.677995 -0.06744,-0.172323 -0.130167,-0.301751 -0.144177,-0.501778 -0.01401,-0.200025 0.02168,-0.480624 0.208773,-0.91984 0.187097,-0.439216 0.363842,-0.659851 0.519347,-0.791166 0.155506,-0.131318 0.298907,-0.180757 0.472841,-0.259933 0.173932,-0.07918 0.378131,-0.1938614 0.513663,-0.4707714 0.125588,-0.256598 0.17896,-0.599838 0.18345,-1.150318 C 16.399665,7.9162152 16.346306,7.5729752 16.220714,7.3163773 16.085182,7.0394673 15.880983,6.9247852 15.707051,6.8456052 15.533117,6.7664252 15.389716,6.7169902 15.23421,6.5856722 15.078705,6.4543574 14.90196,6.2337224 14.714863,5.7945064 14.52777,5.3552904 14.49208,5.0746913 14.50609,4.8746663 c 0.01401,-0.2000271 0.07674,-0.329456 0.144177,-0.5017781 0.06744,-0.1723239 0.139559,-0.3936 0.04496,-0.677995 -0.08774,-0.2637859 -0.288031,-0.5299839 -0.664042,-0.898137 -0.376015,-0.368152 -0.646473,-0.561745 -0.91209,-0.644405 -0.265617,-0.08265 -0.469261,-0.03069 -0.677478,0.05426 -0.171729,0.07005 -0.303198,0.135036 -0.504362,0.152446 -0.201165,0.01742 -0.483228,-0.0123 -0.927592,-0.191203 -0.444361,-0.178906 -0.668189,-0.352344 -0.800467,-0.503845 -0.132279,-0.1514999 -0.181665,-0.2879919 -0.2563151,-0.457336 -0.07465,-0.169341 -0.17692,-0.37338393 -0.449068,-0.50952993 -0.2369839,-0.118557 -0.5525371,-0.167419 -1.0371461,-0.167981 -0.484609,4.64e-4 -0.8001619,0.049357 -1.037146,0.167915 z m 1.037146,0.36276793 c 0.4448802,0.0014 0.6887612,0.05342 0.8009851,0.109555 0.09568,0.04787 0.1380611,0.10731 0.2010211,0.250113 0.06296,0.142804 0.1447589,0.365681 0.3420981,0.591696 0.1973379,0.226015 0.5031719,0.44791 1.0014889,0.648539 0.498321,0.2006391 0.872752,0.252759 1.172022,0.2268591 0.299271,-0.02591 0.513334,-0.130492 0.658357,-0.1896521 0.113218,-0.04617 0.194371,-0.07848 0.320394,-0.03927 0.122082,0.03271 0.348034,0.176016 0.697115,0.517798 0.349079,0.341781 0.492011,0.561609 0.533301,0.685746 0.04129,0.1241369 0.0013,0.2252369 -0.03514,0.3183271 -0.05687,0.1453089 -0.158894,0.3587898 -0.179834,0.6578409 -0.02094,0.299048 0.03803,0.6712339 0.248047,1.1642699 0.210024,0.4930352 0.436993,0.7945742 0.66611,0.9880531 0.229117,0.1934771 0.451975,0.2734242 0.593762,0.337964 0.141786,0.06454 0.207102,0.112727 0.259933,0.220658 0.06711,0.1371229 0.110971,0.3840541 0.119371,0.6537074 l 0.0093,0.264583 c 0,0 1e-6,0.264584 -0.0093,0.264584 -0.0084,0.269653 -0.05226,0.516584 -0.119371,0.653707 -0.05283,0.107931 -0.118147,0.156113 -0.259933,0.220658 -0.141787,0.06454 -0.364645,0.144487 -0.593762,0.337964 -0.229117,0.1934784 -0.456086,0.4950174 -0.66611,0.9880524 -0.21002,0.493036 -0.268991,0.865222 -0.248047,1.16427 0.02094,0.299051 0.122965,0.512532 0.179834,0.657841 0.03643,0.09309 0.07643,0.19419 0.03514,0.318327 -0.04129,0.124137 -0.184222,0.343965 -0.533301,0.685746 -0.349081,0.341781 -0.575033,0.485085 -0.697115,0.517798 -0.126023,0.03921 -0.207176,0.0069 -0.320394,-0.03927 -0.145023,-0.05916 -0.359086,-0.163742 -0.658357,-0.189652 -0.29927,-0.0259 -0.673701,0.02622 -1.172022,0.226859 -0.498317,0.200629 -0.804151,0.422524 -1.0014889,0.648539 -0.1973392,0.226015 -0.2791431,0.448891 -0.3420981,0.591695 -0.06296,0.142804 -0.1053441,0.202248 -0.2010211,0.250114 -0.1122231,0.05614 -0.3561049,0.10811 -0.8009851,0.109554 -0.444881,-0.0016 -0.6887609,-0.05341 -0.800985,-0.109554 -0.09568,-0.04786 -0.1380609,-0.10731 -0.2010209,-0.250114 C 7.401711,15.370947 7.3199018,15.148068 7.1225628,14.922056 6.9252239,14.696038 6.6193899,14.474146 6.1210739,14.273517 5.6227529,14.072889 5.248322,14.020747 4.9490517,14.046658 4.6497818,14.072558 4.4357177,14.177149 4.2906938,14.23631 4.1774759,14.28248 4.0963237,14.3148 3.9702998,14.27558 3.8482208,14.24286 3.6222658,14.099563 3.2731859,13.757782 2.9241058,13.416001 2.7811748,13.196173 2.7398848,13.072036 c -0.04129,-0.124137 -0.0013,-0.225238 0.03514,-0.318327 0.05687,-0.145309 0.158894,-0.358793 0.179834,-0.657841 0.02094,-0.299051 -0.03803,-0.671235 -0.248047,-1.16427 -0.210024,-0.49303 -0.436992,-0.794573 -0.666109,-0.9880524 -0.229117,-0.193476 -0.451977,-0.273422 -0.593763,-0.337964 -0.141786,-0.06454 -0.207104,-0.112726 -0.2599321,-0.220658 -0.06711,-0.137123 -0.110983,-0.384055 -0.119373,-0.653707 l -0.0093,-0.266651 0.0093,-0.262516 c 0.0084,-0.2696522 0.05226,-0.5165844 0.119373,-0.6537073 0.05283,-0.107932 0.1181461,-0.156118 0.2599321,-0.220658 0.141786,-0.06454 0.364646,-0.1444879 0.593763,-0.337964 0.229117,-0.19348 0.456085,-0.495023 0.666109,-0.9880531 0.210017,-0.4930349 0.268987,-0.865219 0.248047,-1.1642699 -0.02094,-0.2990479 -0.122964,-0.512532 -0.179834,-0.6578409 -0.03644,-0.09309 -0.07643,-0.1941902 -0.03514,-0.3183271 0.04129,-0.124137 0.184221,-0.343965 0.5333011,-0.685746 0.3490799,-0.341782 0.5750349,-0.4850781 0.6971139,-0.517798 0.1260239,-0.03922 0.2071761,-0.0069 0.320394,0.03927 0.1450239,0.05916 0.359088,0.163752 0.6583579,0.1896521 0.2992703,0.02591 0.6737012,-0.02623 1.1720222,-0.2268591 0.4983171,-0.2006291 0.80415,-0.4225211 1.0014889,-0.6485391 0.197339,-0.226012 0.2791482,-0.448892 0.3420981,-0.591696 0.06296,-0.142803 0.1053409,-0.202253 0.2010209,-0.250113 0.1122241,-0.05615 0.356104,-0.107965 0.800985,-0.109555 z m 0,2.115117 c -2.9281588,0 -5.290633,2.372277 -5.290633,5.2916664 0,2.9193894 2.3671102,5.2911494 5.290633,5.2911494 2.9235232,0 5.2911502,-2.37176 5.2911502,-5.2911494 0,-2.9193894 -2.362991,-5.2916664 -5.2911502,-5.2916664 z m 0,0.529166 c 1.9733402,0 3.6671802,1.1992372 4.3893962,2.9109342 -0.23596,-2.6e-6 -0.47768,0 -0.711583,0 -0.135345,0.01356 -0.238362,0.127527 -0.238229,0.2635499 v 0.266133 c -0.734181,0 -1.528866,-0.4836499 -2.6329146,-0.5296829 -0.1325999,-0.0055 -0.271259,-0.013179 -0.404627,-0.0067 -0.4011261,0.0094 -0.7348831,0.1171009 -1.136881,0.4485511 -0.06708,-0.020899 -0.09914,-0.03071 -0.2258261,-0.0646 -0.09496,-0.0254 -0.4245139,-0.1140978 -0.627352,-0.113688 -0.3081559,6.35e-4 -0.7041919,0.07092 -1.1012249,0.136942 -0.2694152,0.0448 -0.5352672,0.08683 -0.7498249,0.1100712 V 6.8786131 C 5.0270184,6.73229 4.9077884,6.6142192 4.7614675,6.6150632 H 4.0777873 c 0.722072,-1.711697 2.41554,-2.9109342 4.3888795,-2.910935 z m 0,0.794267 C 8.312505,4.5012952 8.202084,4.6153294 8.202084,4.7619453 v 0.529167 c 0,0.1763339 0.1323319,0.2648741 0.2645828,0.2651 0.1322512,-2.259e-4 0.2645831,-0.08877 0.2645831,-0.2651 v -0.529167 c 0,-0.1466159 -0.1104209,-0.2606799 -0.2645831,-0.2635501 z m -1.6205729,1.1342981 0.375171,0.373104 C 7.4823229,6.2485642 7.837825,5.8827833 7.5964358,5.6326933 L 7.2212649,5.2575223 c -0.04981,-0.05121 -0.1140799,-0.07699 -0.1855179,-0.076999 -0.239186,-0.0018 -0.35477,0.2883831 -0.1896531,0.45217 z M 9.7120691,5.2575244 9.3368978,5.6326954 C 9.0955089,5.8827854 9.451011,6.2485663 9.7120691,6.0057992 L 10.08724,5.6326954 c 0.165118,-0.1637871 0.04953,-0.4540192 -0.189653,-0.4521701 -0.07144,3e-6 -0.135708,0.025788 -0.1855179,0.076999 z m -0.4599202,1.885203 c 0.9812291,0.04091 1.8285531,0.5312341 2.6541011,0.5312341 v 1.8515661 c -0.571853,0.01029 -0.927957,0.04874 -1.738912,0.461471 L 8.9622438,8.5943186 C 9.0949499,8.3519936 8.8145439,8.0938056 8.583972,8.2460196 8.2073625,8.4872247 7.8107252,8.7092965 7.425902,8.9317656 c -0.1601469,0.092461 -0.337988,0.136058 -0.4588859,0.01137 -0.1133499,-0.116905 -0.120265,-0.308104 0.0036,-0.427364 L 7.9803751,7.5447715 C 8.333796,7.2016624 8.647632,7.1357354 8.9146924,7.1349524 c 0.1048655,-3.161e-4 0.2049846,0.00217 0.3374565,0.00777 z m -1.970423,0.33893 -0.6764441,0.6511232 c -0.3295769,0.317277 -0.3435239,0.845192 -0.019119,1.179773 0.3326148,0.343045 0.8201189,0.290092 1.153935,0.04496 0.284572,-0.158965 0.5527701,-0.31192 0.7901331,-0.455269 l 1.1668538,1.3518544 c -0.3190028,0.197175 -0.639576,0.400658 -0.9157068,0.550354 -0.3573851,0.193745 -0.6474351,0.309025 -0.8438761,0.309025 -0.110245,0 -0.301248,-0.07187 -0.5214149,-0.209289 C 7.1959199,10.766775 6.947432,10.572168 6.6895159,10.372955 6.173686,9.9745286 5.586968,9.5254616 5.027602,9.5254616 V 7.6594263 c 0.2555108,-0.023781 0.5449459,-0.07414 0.8356079,-0.1224741 0.3971211,-0.06603 0.794429,-0.1282268 1.0154409,-0.1286743 0.052329,-1.066e-4 0.1691971,0.014081 0.4030751,0.073379 z m -2.254126,2.5729696 c 0.3551579,0 0.827659,0.343147 1.3394529,0.738456 0.2558981,0.197654 0.5127292,0.399936 0.7694621,0.560173 0.2567339,0.160236 0.5277911,0.289388 0.800985,0.289388 0.3285961,0 0.7105589,-0.162331 1.0955412,-0.371037 C 9.4154209,11.064313 9.8222159,10.7996 10.231934,10.550204 11.063,10.114672 11.342253,10.059101 11.90625,10.055661 v 0.262516 c -5.55e-4,0.14612 0.11743,0.265033 0.26355,0.265617 h 0.557072 c -0.781197,1.567159 -2.396155,2.6448 -4.2602052,2.6448 -1.8640499,0 -3.478643,-1.077641 -4.259688,-2.6448 h 0.5544881 c 0.147129,8.47e-4 0.2666961,-0.118486 0.266133,-0.265617 z" id="path1863" style="color:#000000;font-style:normal;font-variant:normal;font-weight:normal;font-stretch:normal;font-size:medium;line-height:normal;font-family:sans-serif;font-variant-ligatures:normal;font-variant-position:normal;font-variant-caps:normal;font-variant-numeric:normal;font-variant-alternates:normal;font-feature-settings:normal;text-indent:0;text-align:start;text-decoration:none;text-decoration-line:none;text-decoration-style:solid;text-decoration-color:#000000;letter-spacing:normal;word-spacing:normal;text-transform:none;writing-mode:lr-tb;direction:ltr;text-orientation:mixed;dominant-baseline:auto;baseline-shift:baseline;text-anchor:start;white-space:normal;shape-padding:0;clip-rule:nonzero;display:inline;overflow:visible;visibility:visible;opacity:1;isolation:auto;mix-blend-mode:normal;color-interpolation:sRGB;color-interpolation-filters:linearRGB;solid-color:#000000;solid-opacity:1;vector-effect:none;fill:#000000;fill-opacity:1;fill-rule:nonzero;stroke:none;stroke-width:0.52916664;stroke-linecap:butt;stroke-linejoin:round;stroke-miterlimit:4;stroke-dasharray:none;stroke-dashoffset:0;stroke-opacity:1;color-rendering:auto;image-rendering:auto;shape-rendering:auto;text-rendering:auto;enable-background:accumulate"/></g></svg>