<?xml version="1.0" ?><svg id="Layer_1" style="enable-background:new 0 0 64 64;" version="1.1" viewBox="0 0 64 64" xml:space="preserve" xmlns="http://www.w3.org/2000/svg" xmlns:xlink="http://www.w3.org/1999/xlink"><g><path d="M61.30289,35.61406l-1.95898-2.91699c-2.58594-3.85107-4.31152-7.82568-5.12891-11.81348   c-1.02441-5.00098-3.48828-9.57373-7.12842-13.22656c-7.08008-7.0625-17.18848-9.42139-27.03809-6.3125   C9.67496,4.63604,2.43033,14.83916,2.43033,26.17266c0,8.59277,4.22412,16.64111,11.29883,21.52881   c2.8877,1.99902,5.27539,4.72217,6.90576,7.87549c1.16504,2.25293,1.9165,4.78857,2.2334,7.53711l0.10254,0.88525h23.52246   V50.47295c0-0.12842,0.10449-0.23291,0.23291-0.23291h3.79688c2.3291,0,4.22412-1.89502,4.22412-4.22461v-7.95898h5.25391   c0.58057,0,1.11084-0.31836,1.38379-0.83057S61.62662,36.096,61.30289,35.61406z M54.30435,36.05645   c-0.8584,0-1.55713,0.69873-1.55713,1.55713v8.40186c0,1.22656-0.99756,2.22461-2.22412,2.22461h-3.79688   c-1.23145,0-2.23291,1.00146-2.23291,2.23291v11.52637H24.73843c-0.396-2.65186-1.17725-5.11768-2.32715-7.34131   c-1.77979-3.44238-4.38818-6.4165-7.54443-8.60156C8.3317,41.54131,4.43033,34.1082,4.43033,26.15654   c0-10.45557,6.6709-19.875,16.22119-22.90527c9.12549-2.87891,18.47998-0.70459,25.02051,5.81982   c3.36133,3.37305,5.63818,7.59668,6.58398,12.21387c0.86963,4.24414,2.6958,8.45898,5.42773,12.52734l1.50732,2.24414H54.30435z"/><path d="M40.60648,19.18547l2.33002-3.52997l-3.38-3.38l-3.53003,2.33997c-1.13-0.67999-2.37-1.19995-3.67999-1.52997   l-0.84998-4.15002h-4.78003l-0.84998,4.16003c-1.31,0.32001-2.53998,0.83997-3.66998,1.51996l-3.53003-2.33997l-3.38,3.38   l2.33002,3.52997c-0.66998,1.13-1.20001,2.37-1.52002,3.67999L11.9465,23.7155v4.77997l4.14996,0.85004   c0.32001,1.31,0.85004,2.54999,1.52002,3.67999l-2.33002,3.52997l3.38,3.38l3.53003-2.33997   c1.13,0.66998,2.35999,1.20001,3.66998,1.51996l0.84998,4.15002h4.78003l0.84998-4.15002   c1.31-0.31995,2.54999-0.83997,3.67999-1.51996l3.53003,2.33997l3.38-3.38l-2.33002-3.52997   c0.66998-1.13,1.20001-2.37,1.52002-3.67999l4.14996-0.85004V23.7155l-4.14996-0.85004   C41.80649,21.55547,41.27646,20.31548,40.60648,19.18547z M29.10648,32.49547c-3.52002,0-6.39001-2.85999-6.39001-6.38995   c0-3.53003,2.87-6.39001,6.39001-6.39001c3.53003,0,6.40002,2.85999,6.40002,6.39001   C35.5065,29.63549,32.63651,32.49547,29.10648,32.49547z"/></g></svg>